<svg xmlns="http://www.w3.org/2000/svg" height="600" width="600">
    <g transform="translate(134 -64) rotate(-45 300 300)">
        <g transform="translate(115.47005383792516 66.66666666666667)">
            <path d="M 86.60254037844388,50.0 L 173.20508075688775,0 173.20508075688775,100 86.60254037844388,150.0 86.60254037844388,50.0" fill="rgb(140,131,114)"/>
        </g>
        <g transform="translate(230.94010767585033 133.33333333333334)">
            <path d="M 0,0 L 86.60254037844388,-50.0 173.20508075688775,0 86.60254037844388,50.0 0,0" fill="rgb(156,163,142)"/>
            <path d="M 86.60254037844388,50.0 L 173.20508075688775,0 173.20508075688775,100 86.60254037844388,150.0 86.60254037844388,50.0" fill="rgb(131,140,114)"/>
            <path d="M 0,0 L 86.60254037844388,50.0 86.60254037844388,150.0 0,100 0,0" fill="rgb(105,112,91)"/>
        </g>
        <g transform="translate(346.4101615137755 200.0)">
            <path d="M 0,0 L 86.60254037844388,-50.0 173.20508075688775,0 86.60254037844388,50.0 0,0" fill="rgb(142,163,142)"/>
            <path d="M 86.60254037844388,50.0 L 173.20508075688775,0 173.20508075688775,100 86.60254037844388,150.0 86.60254037844388,50.0" fill="rgb(114,140,114)"/>
            <path d="M 0,0 L 86.60254037844388,50.0 86.60254037844388,150.0 0,100 0,0" fill="rgb(91,112,91)"/>
        </g>
        <g transform="translate(230.94010767585033 266.6666666666667)">
            <path d="M 0,0 L 86.60254037844388,-50.0 173.20508075688775,0 86.60254037844388,50.0 0,0" fill="rgb(142,163,156)"/>
            <path d="M 86.60254037844388,50.0 L 173.20508075688775,0 173.20508075688775,100 86.60254037844388,150.0 86.60254037844388,50.0" fill="rgb(114,140,131)"/>
            <path d="M 0,0 L 86.60254037844388,50.0 86.60254037844388,150.0 0,100 0,0" fill="rgb(91,112,105)"/>
        </g>
        <g transform="translate(115.47005383792516 333.33333333333337)">
            <path d="M 0,0 L 86.60254037844388,-50.0 173.20508075688775,0 86.60254037844388,50.0 0,0" fill="rgb(142,156,163)"/>
            <path d="M 86.60254037844388,50.0 L 173.20508075688775,0 173.20508075688775,100 86.60254037844388,150.0 86.60254037844388,50.0" fill="rgb(114,131,140)"/>
            <path d="M 0,0 L 86.60254037844388,50.0 86.60254037844388,150.0 0,100 0,0" fill="rgb(91,105,112)"/>
        </g>
        <g transform="translate(0 400.0)">
            <path d="M 0,0 L 86.60254037844388,-50.0 173.20508075688775,0 86.60254037844388,50.0 0,0" fill="rgb(142,142,163)"/>
            <path d="M 86.60254037844388,50.0 L 173.20508075688775,0 173.20508075688775,100 86.60254037844388,150.0 86.60254037844388,50.0" fill="rgb(114,114,140)"/>
            <path d="M 0,0 L 86.60254037844388,50.0 86.60254037844388,150.0 0,100 0,0" fill="rgb(91,91,112)"/>
        </g>
        <g transform="translate(0 266.6666666666667)">
            <path d="M 0,0 L 86.60254037844388,-50.0 173.20508075688775,0 86.60254037844388,50.0 0,0" fill="rgb(156,142,163)"/>
            <path d="M 86.60254037844388,50.0 L 173.20508075688775,0 173.20508075688775,100 86.60254037844388,150.0 86.60254037844388,50.0" fill="rgb(131,114,140)"/>
            <path d="M 0,0 L 86.60254037844388,50.0 86.60254037844388,150.0 0,100 0,0" fill="rgb(105,91,112)"/>
        </g>
        <g transform="translate(0 133.33333333333334)">
            <path d="M 0,0 L 86.60254037844388,-50.0 173.20508075688775,0 86.60254037844388,50.0 0,0" fill="rgb(163,142,156)"/>
            <path d="M 86.60254037844388,50.0 L 173.20508075688775,0 173.20508075688775,100 86.60254037844388,150.0 86.60254037844388,50.0" fill="rgb(140,114,131)"/>
            <path d="M 0,0 L 86.60254037844388,50.0 86.60254037844388,150.0 0,100 0,0" fill="rgb(112,91,105)"/>
        </g>
        <g transform="translate(0 0)">
            <path d="M 0,0 L 86.60254037844388,-50.0 173.20508075688775,0 86.60254037844388,50.0 0,0" fill="rgb(163,142,142)"/>
            <path d="M 86.60254037844388,50.0 L 173.20508075688775,0 173.20508075688775,100 86.60254037844388,150.0 86.60254037844388,50.0" fill="rgb(140,114,114)"/>
            <path d="M 0,0 L 86.60254037844388,50.0 86.60254037844388,150.0 0,100 0,0" fill="rgb(112,91,91)"/>
        </g>
        <g transform="translate(115.47005383792516 66.66666666666667)">
            <path d="M 0,0 L 86.60254037844388,-50.0 173.20508075688775,0 86.60254037844388,50.0 0,0" fill="rgb(163,156,142)"/>
            <path d="M 0,0 L 86.60254037844388,50.0 86.60254037844388,150.0 0,100 0,0" fill="rgb(112,105,91)"/>
        </g>
    </g>
</svg>